<?xml version="1.0" encoding="utf-8"?>
<!-- Generator: Adobe Illustrator 19.1.0, SVG Export Plug-In . SVG Version: 6.00 Build 0)  -->
<svg version="1.1" id="Layer_1" xmlns="http://www.w3.org/2000/svg" xmlns:xlink="http://www.w3.org/1999/xlink" x="0px" y="0px"
	 viewBox="0 0 100 100" style="enable-background:new 0 0 100 100;" xml:space="preserve">
<style type="text/css">
	.st0{fill:#F1F1F2;}
	.st1{fill:#640F13;}
	.st2{fill:#FCE8D0;}
	.st3{fill:#E6E7E8;}
	.st4{fill:#DB4342;}
	.st5{fill:#FACCAA;}
	.st6{fill:#FFFFFF;}
	.st7{fill:#C83D3C;}
	.st8{fill:#98CF97;}
	.st9{fill:#83B585;}
	.st10{fill:#E86363;}
	.st11{fill:#FFDF00;}
	.st12{fill:#FFF69D;}
	.st13{fill:#FFF5CA;}
	.st14{fill:#D0AF8B;}
	.st15{fill:#BC3839;}
	.st16{fill:#E8DEB9;}
	.st17{fill:#DFC0A9;}
	.st18{fill:#640F14;}
	.st19{fill:#BADDEE;}
	.st20{fill:#9DD3ED;}
	.st21{fill:#D17663;}
	.st22{fill:#839CC1;}
	.st23{fill:#E0D682;}
	.st24{fill:#E07B25;}
	.st25{fill:#77A9C3;}
	.st26{fill:#008BB3;}
	.st27{fill:#2385A5;}
	.st28{fill:#6CADCA;}
	.st29{fill:#DBDCDD;}
	.st30{fill:#7AB17B;}
	.st31{fill:#C3996B;}
	.st32{fill:#B18C62;}
	.st33{fill:#D7B492;}
	.st34{fill:#F27575;}
	.st35{fill:#992E34;}
	.st36{fill:#D0D2D3;}
	.st37{fill:#AE3334;}
	.st38{fill:#A9865E;}
	.st39{fill:#231F20;}
	.st40{fill:#FCC010;}
	.st41{fill:#F4EDB8;}
	.st42{fill:#E29E16;}
</style>
<g>
	<g>
		<path class="st2" d="M76.4,22.2L76.4,22.2L76.4,22.2c-0.2-0.4-0.3-0.7-0.6-1.1c-0.2-0.4-0.4-0.7-0.7-1.1c-4.4-5.8-9.6-4.6-13-1.5
			c-2.5,2.3-6.6,5.7-8.5,7.4c-0.8-0.4-1.6-0.6-2.5-0.6c-1,0-2,0.3-2.8,0.8c-1.8-1.5-6.1-5.2-8.7-7.5c-3.4-3.1-8.6-4.3-13,1.5
			c-0.3,0.4-0.5,0.8-0.8,1.1c0,0,0,0,0,0.1c-3.2,5.7-0.3,13-0.3,13c0,0,0.1,0.1,0.1,0.1c-2.2,1.7-3.3,4.2-3.3,6.9c0,0.7,0,1.1,0,1.4
			c0,0.5,0,1.6,0,3c0,1.1,0,2.4,0,3.7c0,5.3,0,12.1,0,13.9c0,3,0.6,5.6,6.3,8.8c0.9,0.5,2,1.1,3.1,1.6v0l0.1,0
			c5.7,2.8,13,5.5,15.1,6.3c2.6,0.9,5.8,1.6,9.1,0c1.5-0.8,4.8-2.8,8-4.8v0l0.1-0.1c3.6-2.3,7.2-4.6,8.4-5.4c2.3-1.4,3-2.6,3-7.2
			c0-2.7,0-9.1,0-13.9c0-1.4,0-2.7,0-3.7c0-1.4,0-2.3,0-2.3c0-0.9,0-1.3,0-1.4c0-1.9-0.4-3.3-1.3-4.5c0.8-0.6,1.5-1.5,2.1-2.5
			C76.2,34.3,78.8,27.8,76.4,22.2z"/>
		<path class="st1" d="M68.1,16c2.3,0,4.8,1.1,7,4.1c0.3,0.3,0.5,0.7,0.7,1.1c0.2,0.4,0.4,0.7,0.6,1.1l0,0
			c2.4,5.5-0.2,12.1-0.2,12.1c-0.6,1-1.3,1.9-2.1,2.5c1,1.2,1.3,2.6,1.3,4.5c0,0.1,0,0.5,0,1.4c0,0,0,0.9,0,2.3c0,1,0,2.3,0,3.7
			c0,4.8,0,11.2,0,13.9c0,4.7-0.7,5.8-3,7.2c-1.2,0.7-4.8,3.1-8.4,5.4l-0.1,0.1v0c-3.2,2.1-6.5,4.1-8,4.8c-1.4,0.7-2.8,1-4.2,1
			c-1.8,0-3.4-0.5-4.9-1c-2.2-0.8-9.4-3.5-15.1-6.3l-0.1,0v0c-1.1-0.5-2.2-1.1-3.1-1.6c-5.8-3.3-6.3-5.8-6.3-8.8c0-1.9,0-8.6,0-13.9
			c0-1.4,0-2.7,0-3.7c0-1.5,0-2.6,0-3c0-0.3,0-0.7,0-1.4c0-2.7,1.1-5.2,3.3-6.9c0,0-0.1-0.1-0.1-0.1c0,0-2.9-7.4,0.3-13
			c0,0,0,0,0-0.1c0.2-0.4,0.5-0.8,0.8-1.1c2.3-2.9,4.7-4.1,7-4.1c2.2,0,4.3,1.1,6,2.6c2.6,2.4,6.9,6,8.7,7.5
			c0.8-0.5,1.8-0.8,2.8-0.8c0.9,0,1.7,0.2,2.5,0.6c1.9-1.6,6-5.1,8.5-7.4C63.7,17.1,65.8,16,68.1,16 M68.1,13.5
			c-2.7,0-5.4,1.2-7.7,3.3c-2.1,1.9-5.1,4.5-7.3,6.3c-0.7-0.2-1.3-0.3-2-0.3c-0.8,0-1.6,0.1-2.4,0.4c-2.1-1.8-5.3-4.5-7.4-6.5
			c-2.3-2.1-5-3.3-7.7-3.3c-2.3,0-5.8,0.9-9,5.1c-0.3,0.4-0.7,0.9-0.9,1.4c0,0,0,0.1-0.1,0.1c-2.8,5-1.7,10.9-0.9,13.6
			c-1.9,2.1-2.9,4.7-2.9,7.6v1.4v3v3.7v13.9c0,4.2,1.3,7.4,7.6,11c0.9,0.5,1.9,1,3.2,1.6c0.1,0,0.1,0.1,0.2,0.1
			c6.3,3.1,14.4,6,15.3,6.3c2.1,0.8,4,1.1,5.8,1.1c1.9,0,3.7-0.4,5.3-1.2c1.4-0.7,3.9-2.2,8.2-5l0.1-0.1c1.5-0.9,2.9-1.9,4.2-2.7
			c1.9-1.2,3.5-2.2,4.2-2.6c3.3-2,4.2-4.1,4.2-9.4V48.9v-3.7v-2.3v-1.4c0-1.6-0.2-2.9-0.7-4.1c0.4-0.5,0.8-1,1.1-1.6
			c0.1-0.1,0.1-0.2,0.2-0.4c0.1-0.3,2.9-7.6,0.1-14c-0.2-0.5-0.4-0.9-0.7-1.3c-0.3-0.5-0.6-0.9-0.9-1.3
			C73.9,14.4,70.4,13.5,68.1,13.5L68.1,13.5z"/>
	</g>
	<path class="st8" d="M22.1,42.8c0,2.1,0,17.7,0,20.7c0,3,0.6,5.6,6.3,8.8s15.7,7,18.3,7.9c2.6,0.9,5.8,1.6,9.1,0
		c3.3-1.6,14.2-8.8,16.5-10.2c2.3-1.4,3-2.6,3-7.2s0-20,0-20H22.1z"/>
	<path class="st9" d="M53.6,69.9c0.2,2.5,0.4,5.8,0.6,7c0.2,1.2,1.3,1.1,3.4,0s12.8-8,14.2-8.9c1.3-0.9,2.2-0.9,2.2-3.7
		c0-2.8,0.2-1.5,0-4.9c-0.2-3.4-0.6-4.6-1.7-3.9s-12.6,7.2-14.6,8.4C55.5,65.1,53.3,66.8,53.6,69.9z"/>
	<path class="st1" d="M51.7,81.9c-2,0-3.7-0.5-5.1-1c-1.2-0.4-12.1-4.4-18.4-8c-6.2-3.5-6.7-6.3-6.7-9.4V42.8c0-0.3,0.3-0.6,0.6-0.6
		h53.3c0.3,0,0.6,0.3,0.6,0.6v20c0,4.6-0.7,6.2-3.3,7.8C72,71,70.4,72,68.5,73.2c-4.3,2.7-10.1,6.5-12.4,7.6
		C54.6,81.6,53.1,81.9,51.7,81.9z M22.7,43.4v20.1c0,2.8,0.4,5.1,6,8.3c5,2.8,13.8,6.3,18.2,7.9c2.2,0.8,5.4,1.6,8.6,0
		c2.2-1.1,8-4.8,12.3-7.5c1.9-1.2,3.5-2.2,4.2-2.7c2-1.2,2.7-2,2.7-6.7V43.4H22.7z"/>
	<g>
		<path class="st8" d="M75.4,41.3c0,0,0-0.9,0,3.8s-0.7,5.8-3,7.2s-13.3,8.6-16.5,10.2c-3.3,1.6-6.5,0.9-9.1,0
			c-2.6-0.9-12.6-4.7-18.3-7.9s-6.3-5.8-6.3-8.8s0-2.4,0-4.5c0-3.4,1.8-6.6,5.5-8.2c3.7-1.6,14.2-4.6,17.5-5.9c3.3-1.3,8.3-1.3,11,0
			c2.1,1,8.7,4,11.6,5.4C73.8,35.7,75.4,37.2,75.4,41.3z"/>
		<path class="st1" d="M51.7,64.2c-2,0-3.7-0.5-5.1-1c-1.2-0.4-12.2-4.4-18.4-8c-6.2-3.5-6.7-6.3-6.7-9.4v-4.5
			c0-3.9,2.2-7.2,5.9-8.8c2.1-0.9,6.2-2.2,10.1-3.5c3.1-1,6-1.9,7.4-2.5c3.5-1.4,8.6-1.4,11.5,0c0.9,0.5,2.7,1.3,4.7,2.2
			c2.5,1.1,5.2,2.4,6.9,3.2c6,3,8,4.7,8,9.2c0,0,0,0,0,0v3.8c0,4.6-0.7,6.2-3.3,7.8c-0.7,0.4-2.3,1.4-4.2,2.7
			c-4.3,2.7-10.1,6.5-12.4,7.6C54.6,63.9,53.1,64.2,51.7,64.2z M50.9,26.8c-1.9,0-3.9,0.3-5.5,0.9c-1.5,0.6-4.4,1.5-7.5,2.5
			c-3.7,1.2-8,2.5-10,3.4c-3.3,1.4-5.2,4.2-5.2,7.6v4.5c0,2.8,0.4,5.1,6,8.3c6.2,3.5,17,7.4,18.2,7.9c2.2,0.8,5.4,1.6,8.6,0
			c2.2-1.1,8-4.8,12.3-7.5c1.9-1.2,3.5-2.2,4.2-2.7c2-1.2,2.7-2,2.7-6.7v-3.8c0-3.7-1.3-5.1-7.3-8.1c-1.6-0.8-4.4-2.1-6.8-3.2
			c-2-0.9-3.8-1.8-4.8-2.2C54.6,27.2,52.8,26.8,50.9,26.8z"/>
	</g>
	<path class="st9" d="M60.2,45.4c-6.7,2.7-8.8,2.7-8.2,9.2c0.6,6.5,0.4,7.3,2.9,6.4c2.5-0.9,15.7-8.9,17.4-10.2
		c1.2-0.9,1.4-2.2,1.5-4c0-2.3,0.7-6-1.6-5.5C69.9,41.7,60.2,45.4,60.2,45.4z"/>
	<path class="st4" d="M31.6,74c0,0,0-22.5,0-26.8s1.5-7.3,5.7-9.1s7-2.8,7-2.8l-9-4.8l8-2.6l8.6,4.1l7.9-3.1l6.4,3l-7.7,3.6
		c0,0,2.8,1.2,5.3,2.6c2.5,1.5,5.6,4.6,5.6,11.8c0,4.5,0,22,0,22l-5.5,3.5c0,0,0-19.2,0-24.1c0-7.5-6.1-9.4-6.1-9.4l-7.3-3.4
		c0,0-4.6,1.3-7.8,2.8c-3.2,1.4-4.1,3.3-4.1,6.2s0,29.5,0,29.5L31.6,74z"/>
	<path class="st7" d="M35.2,39.2c0,0,1.4,1.4,5.9,0.4c2.6-0.6,3.6-1.9,4.5-2.5c0.6-0.4,1.4-0.5,2-0.2c0.8,0.3,1.3,0.6,2.8,0.7
		c1.6,0.1,3.5-0.1,4.3-0.5c0.4-0.2,1.1-0.4,1.3,0c0.4,0.8,3.2,2.3,8.3,1.5c0,0-6.7-5.8-10.9-6s-9.1,0.3-12.5,1.8
		C37.5,35.8,35.2,39.2,35.2,39.2z"/>
	<path class="st1" d="M38.6,77.6c-0.1,0-0.2,0-0.2-0.1l-7-3c-0.2-0.1-0.4-0.3-0.4-0.6V47.1c0-4.9,1.9-7.8,6.1-9.7
		c2.5-1.1,4.5-1.9,5.7-2.3L35,31c-0.2-0.1-0.4-0.4-0.3-0.6c0-0.3,0.2-0.5,0.4-0.5l8-2.6c0.2,0,0.3,0,0.5,0l8.4,4l7.7-3
		c0.2-0.1,0.3-0.1,0.5,0l6.4,3c0.2,0.1,0.4,0.3,0.4,0.6c0,0.2-0.1,0.5-0.4,0.6l-6.5,3c1,0.5,2.6,1.2,4.1,2.1
		c2.7,1.5,5.9,4.9,5.9,12.3v22c0,0.2-0.1,0.4-0.3,0.5L64.2,76c-0.2,0.1-0.4,0.1-0.6,0c-0.2-0.1-0.3-0.3-0.3-0.6V51.4
		c0-6.9-5.5-8.7-5.7-8.8l-7.1-3.4c-1,0.3-4.8,1.4-7.5,2.7c-2.7,1.3-3.7,2.7-3.7,5.6V77c0,0.2-0.1,0.4-0.3,0.5
		C38.8,77.6,38.7,77.6,38.6,77.6z M32.2,73.6L38,76V47.5c0-3.4,1.3-5.3,4.5-6.8c3.2-1.4,7.7-2.7,7.9-2.8c0.1,0,0.3,0,0.4,0l7.3,3.4
		l0,0c0,0,6.5,2.1,6.5,9.9v22.9l4.2-2.7V49.9c0-5.3-1.8-9.2-5.2-11.2c-2.4-1.4-5.2-2.6-5.2-2.6c-0.2-0.1-0.4-0.3-0.4-0.6
		c0-0.2,0.1-0.5,0.4-0.6l6.5-3l-5-2.3l-7.7,3c-0.2,0.1-0.3,0.1-0.5,0l-8.4-4l-6.3,2.1l7.7,4.1c0.2,0.1,0.4,0.4,0.3,0.6
		c0,0.3-0.2,0.5-0.4,0.5c0,0-2.8,0.9-6.9,2.8c-3.8,1.7-5.3,4.1-5.3,8.5V73.6z"/>
	<path class="st4" d="M75.1,20.1c-4.4-5.8-9.6-4.6-13-1.5c-3.4,3.1-9.6,8.3-9.6,8.3h-3.3c0,0-6.2-5.2-9.6-8.3
		c-3.4-3.1-8.6-4.3-13,1.5s-1.1,14.2-1.1,14.2c1.9,3.1,4.2,4.4,9.3,4.1c5-0.3,12.6-4.1,12.6-4.1h1.7h3.8h1.7c0,0,7.6,3.9,12.6,4.1
		c5,0.3,7.4-1,9.3-4.1C76.2,34.3,79.5,25.9,75.1,20.1z"/>
	<path class="st1" d="M59.2,33.5c-0.1,0-0.2,0-0.3-0.1c-2.4-1-3.6-2-3.7-2.7c-0.1-0.9,0.6-1.4,1.9-2.2c0.4-0.3,1-0.6,1.7-1.1
		c0.3-0.2,0.7-0.1,0.9,0.2c0.2,0.3,0.1,0.7-0.2,0.9c-0.7,0.5-1.3,0.8-1.7,1.1c-1,0.6-1.3,0.9-1.3,1c0.1,0.2,1.5,1.1,2.9,1.7
		c0.3,0.1,0.5,0.5,0.3,0.8C59.7,33.3,59.5,33.5,59.2,33.5z"/>
	<path class="st1" d="M42.3,32.7c-0.3,0-0.6-0.3-0.6-0.6c0-0.3,0.3-0.6,0.6-0.6c2.2,0,2.9-0.5,3.2-0.8c0.2-0.2,0.2-0.5,0.2-0.5
		c0,0,0-0.1,0-0.2c-0.1-0.3-1.3-1-2.5-1.5c-0.3-0.1-0.5-0.5-0.4-0.8c0.1-0.3,0.5-0.5,0.8-0.4c1,0.4,3.2,1.3,3.3,2.6
		c0,0.2,0.1,0.8-0.4,1.4C45.8,32.2,44.4,32.7,42.3,32.7C42.3,32.7,42.3,32.7,42.3,32.7z"/>
	<path class="st10" d="M35,20.8c4.9,2.2,9,6.1,12.9,6.5c3.9,0.4,6.6,0.3,12-2.8c4.1-2.4,8.6-5.3,16.5-2.2c-0.3-0.7-0.7-1.5-1.3-2.1
		c-4.4-5.8-9.6-4.6-13-1.5c-3.4,3.1-9.6,8.3-9.6,8.3h-3.3c0,0-6.2-5.2-9.6-8.3c-3.4-3.1-8.6-4.3-13,1.5c-0.6,0.7-1,1.5-1.3,2.3
		C25.2,22.4,30.1,18.6,35,20.8z"/>
	<path class="st1" d="M33.3,39.1c-4.2,0-6.6-1.3-8.5-4.5c-0.2-0.4-3.5-8.9,1.1-14.9c2-2.6,4.3-4.1,6.9-4.3c2.4-0.2,4.9,0.8,7.1,2.7
		c3,2.8,8.4,7.3,9.4,8.1h2.9c1-0.9,6.4-5.4,9.4-8.1c2.2-2,4.7-2.9,7.1-2.7c2.5,0.2,4.8,1.7,6.9,4.3c4.6,6,1.3,14.5,1.2,14.8
		c-2.1,3.6-4.9,4.8-9.9,4.5c-4.8-0.3-11.6-3.6-12.7-4.1h-6.8c-1.1,0.5-7.9,3.9-12.7,4.1C34.2,39.1,33.8,39.1,33.3,39.1z M33.5,16.7
		c-0.2,0-0.4,0-0.5,0c-2.2,0.2-4.2,1.5-6,3.8c-4.2,5.4-1.1,13.5-1,13.6c1.5,2.6,3.5,4,8.6,3.8c4.8-0.3,12.3-4,12.3-4.1
		c0.1,0,0.2-0.1,0.3-0.1h7.1c0.1,0,0.2,0,0.3,0.1c0.1,0,7.5,3.8,12.3,4.1c5.2,0.3,7.1-1.2,8.7-3.8l0,0c0,0,3.1-8.1-1.1-13.5l0,0
		c-1.8-2.3-3.8-3.6-6-3.8c-2.1-0.2-4.3,0.7-6.1,2.4c-3.4,3.1-9.6,8.3-9.6,8.3c-0.1,0.1-0.3,0.1-0.4,0.1h-3.3c-0.1,0-0.3-0.1-0.4-0.1
		c-0.1-0.1-6.3-5.2-9.6-8.3C37.4,17.5,35.4,16.7,33.5,16.7z"/>
	<g>
		<circle class="st11" cx="51.1" cy="31" r="5.6"/>
		<path class="st1" d="M51.1,37.2c-3.4,0-6.2-2.8-6.2-6.2c0-3.4,2.8-6.2,6.2-6.2c3.4,0,6.2,2.8,6.2,6.2
			C57.3,34.4,54.5,37.2,51.1,37.2z M51.1,26c-2.7,0-5,2.2-5,5c0,2.7,2.2,5,5,5c2.7,0,5-2.2,5-5C56,28.2,53.8,26,51.1,26z"/>
	</g>
	<circle class="st12" cx="50" cy="30" r="2.1"/>
	<path class="st7" d="M67.8,57.6c0,6.7-0.5,12.8-1,12.8c-0.5,0-1-0.8-1-7.4s0.3-16.4,0.8-16.4C67.1,46.7,67.8,51,67.8,57.6z"/>
	<ellipse transform="matrix(0.6155 0.7881 -0.7881 0.6155 48.8987 -10.4623)" class="st10" cx="35.2" cy="44.9" rx="1.1" ry="2"/>
</g>
</svg>
