<?xml version="1.0" encoding="utf-8"?>
<!-- Generator: Adobe Illustrator 19.1.0, SVG Export Plug-In . SVG Version: 6.00 Build 0)  -->
<svg version="1.1" id="Layer_1" xmlns="http://www.w3.org/2000/svg" xmlns:xlink="http://www.w3.org/1999/xlink" x="0px" y="0px"
	 viewBox="0 0 100 100" style="enable-background:new 0 0 100 100;" xml:space="preserve">
<style type="text/css">
	.st0{fill:#F1F1F2;}
	.st1{fill:#640F13;}
	.st2{fill:#FCE8D0;}
	.st3{fill:#E6E7E8;}
	.st4{fill:#DB4342;}
	.st5{fill:#FACCAA;}
	.st6{fill:#FFFFFF;}
	.st7{fill:#C83D3C;}
	.st8{fill:#98CF97;}
	.st9{fill:#83B585;}
	.st10{fill:#E86363;}
	.st11{fill:#FFDF00;}
	.st12{fill:#FFF69D;}
	.st13{fill:#FFF5CA;}
	.st14{fill:#D0AF8B;}
	.st15{fill:#BC3839;}
	.st16{fill:#E8DEB9;}
	.st17{fill:#DFC0A9;}
	.st18{fill:#640F14;}
	.st19{fill:#BADDEE;}
	.st20{fill:#9DD3ED;}
	.st21{fill:#D17663;}
	.st22{fill:#839CC1;}
	.st23{fill:#E0D682;}
	.st24{fill:#E07B25;}
	.st25{fill:#77A9C3;}
	.st26{fill:#008BB3;}
	.st27{fill:#2385A5;}
	.st28{fill:#6CADCA;}
	.st29{fill:#DBDCDD;}
	.st30{fill:#7AB17B;}
	.st31{fill:#C3996B;}
	.st32{fill:#B18C62;}
	.st33{fill:#D7B492;}
	.st34{fill:#F27575;}
	.st35{fill:#992E34;}
	.st36{fill:#D0D2D3;}
	.st37{fill:#AE3334;}
	.st38{fill:#A9865E;}
	.st39{fill:#231F20;}
	.st40{fill:#FCC010;}
	.st41{fill:#F4EDB8;}
	.st42{fill:#E29E16;}
</style>
<g>
	<g>
		<path class="st0" d="M75.2,28.4c0.2-3.5-2.5-6.5-6.1-6.7c-1.4-0.1-2.6,0.3-3.7,1c-2.7-2.6-7.7-5.4-16.5-5.5
			C36.8,16.9,31.8,26,30,30.9c-2,0.7-2.9,1.9-4.2,4.7c-1.4,3-1.4,6.3,0.5,7.4c-1.6,0.7-2.8,2.4-2.8,4.3c0,2.2,1.5,4,3.5,4.5
			c-1.4,5.1,0.5,12.2,5.6,17.7c7.6,8.2,12.5,7.4,12.9,10.1c0.4,2.7,12.2-4.5,17-10.1c2.5-2.9,8.1-11.4,5.6-17.6
			c2.2-0.4,3.8-2.3,3.8-4.6c0-1.8-1-3.4-2.5-4.2c1.3-0.9,1.6-3.6,0.2-7.5c-0.1-0.4-0.4-0.8-0.7-1.2C72.3,34.3,75,31.7,75.2,28.4z"/>
		<path class="st1" d="M48.5,17.1c0.1,0,0.3,0,0.4,0c8.8,0.2,13.8,3,16.5,5.5c1-0.6,2.1-1,3.4-1c0.1,0,0.2,0,0.3,0
			c3.5,0.2,6.3,3.2,6.1,6.7c-0.2,3.4-2.9,6-6.2,6c0.3,0.4,0.5,0.8,0.7,1.2c1.4,3.9,1.1,6.7-0.2,7.5c1.5,0.8,2.5,2.3,2.5,4.2
			c0,2.3-1.6,4.2-3.8,4.6c2.6,6.1-3.1,14.6-5.6,17.6c-4.1,4.8-13.2,10.7-16.1,10.7c-0.5,0-0.8-0.2-0.9-0.6
			c-0.4-2.7-5.3-1.9-12.9-10.1c-5.1-5.4-7-12.6-5.6-17.7c-2-0.6-3.5-2.4-3.5-4.5c0-1.9,1.1-3.6,2.8-4.3c-1.9-1.1-1.9-4.4-0.5-7.4
			c1.3-2.8,2.3-4,4.2-4.7C31.8,26.1,36.7,17.1,48.5,17.1 M48.5,14.6C35.7,14.6,30.1,24,28,29c-2.2,1.1-3.4,2.9-4.6,5.5
			c-1.4,2.9-1.6,5.8-0.7,8c-1.1,1.3-1.8,3-1.8,4.8c0,2.4,1.2,4.6,3.2,6c-0.7,5.8,1.8,12.8,6.6,18c4.6,5,8.4,6.9,10.7,8
			c0.6,0.3,1.3,0.7,1.6,0.9c0.3,1.3,1.4,2.6,3.3,2.6c4.1,0,13.8-6.6,18-11.5c3-3.5,7.7-11.1,6.7-17.8c2-1.3,3.3-3.6,3.3-6.1
			c0-1.7-0.6-3.4-1.7-4.7c0.5-1.7,0.5-3.9-0.3-6.4c3-1.3,5.1-4.3,5.3-7.7c0.2-4.9-3.5-9.1-8.5-9.4c-0.2,0-0.3,0-0.4,0
			c-1,0-2,0.2-3,0.5c-3.1-2.4-8.4-4.9-16.9-5.1C48.8,14.6,48.6,14.6,48.5,14.6L48.5,14.6L48.5,14.6z"/>
	</g>
	<g>
		<path class="st2" d="M71.9,47.3c0,2.6-2.1,4.7-4.7,4.7h0v0.2c0,10.7-8.8,19.5-19.5,19.5h0c-10.7,0-19.5-8.8-19.5-19.5V52
			c-2.6,0-4.7-2.1-4.7-4.7c0-2.6,2.1-4.7,4.7-4.7v-0.2c0-10.7,8.8-19.5,19.5-19.5h0c10.7,0,19.5,8.8,19.5,19.5v0.2h0
			C69.8,42.6,71.9,44.7,71.9,47.3z"/>
		<path class="st1" d="M47.7,72.3c-11,0-19.9-8.8-20.1-19.7c-2.7-0.3-4.7-2.6-4.7-5.3c0-2.7,2.1-5,4.7-5.3
			c0.2-10.9,9.2-19.7,20.1-19.7c11,0,19.9,8.8,20.1,19.7c2.7,0.3,4.8,2.6,4.8,5.3c0,2.8-2.1,5-4.8,5.3
			C67.6,63.5,58.6,72.3,47.7,72.3z M47.7,23.5c-10.4,0-18.9,8.5-18.9,18.8v0.2c0,0.3-0.3,0.6-0.6,0.6c-2.3,0-4.1,1.8-4.1,4.1
			c0,2.3,1.8,4.1,4.1,4.1c0.3,0,0.6,0.3,0.6,0.6v0.2c0,10.4,8.5,18.8,18.8,18.8c10.4,0,18.9-8.5,18.9-18.8V52c0-0.3,0.3-0.6,0.6-0.6
			c2.3,0,4.1-1.8,4.1-4.1c0-2.3-1.8-4.1-4.1-4.1c-0.3,0-0.7-0.3-0.7-0.6v-0.2C66.5,32,58.1,23.5,47.7,23.5z"/>
	</g>
	<path class="st3" d="M47.1,46.6c0,0-9.1-3.1-16.2,0S24.3,61.7,32,69.9S44.5,77.2,44.9,80s12.2-4.5,17-10.1
		c3.5-4.1,13.1-19.2-2.2-23.3C54.6,45.2,47.1,46.6,47.1,46.6z"/>
	<path class="st0" d="M62.6,46.9c-0.7-0.3-1.4-0.5-2.2-0.7c-5.2-1.4-12.7,0-12.7,0s-9.1-3.1-16.2,0c-5.5,2.4-6.4,10.2-2.9,17.4
		c0.4,0,0.6,0,0.6,0s5.6,6.7,13.4,8.7s12.7-0.6,16.1-3.4c3.8-3.1,6.3-6,7.4-11.2C66.9,54.2,65.3,50.1,62.6,46.9z"/>
	<path class="st1" d="M46.1,81.2c-0.2,0-0.4,0-0.6-0.1c-0.5-0.2-0.9-0.5-0.9-1.1c-0.1-0.8-0.9-1.3-2.6-2.1c-2.3-1.2-5.9-3-10.3-7.7
		c-4.8-5.2-7.2-12.1-6.1-17.7c0.7-3.2,2.5-5.7,5.2-6.8c6.9-3,15.4-0.5,16.7-0.1c1.2-0.2,8-1.3,13,0c4.7,1.3,7.5,3.6,8.6,7
		c1.9,6.2-3.1,14.2-6.1,17.6C58.9,74.8,49.5,81.2,46.1,81.2z M38.4,45.4c-2.4,0-4.9,0.3-7.2,1.3c-2.3,1-3.8,3.1-4.4,5.9
		c-1.1,5.2,1.2,11.7,5.7,16.6c4.3,4.6,7.7,6.3,10,7.5c1.8,0.9,3.1,1.5,3.3,3.1c1.1,0.8,11.1-4.7,16.2-10.5
		c2.2-2.6,7.6-10.5,5.8-16.4c-0.9-2.9-3.5-5-7.7-6.1c-5-1.4-12.5,0-12.6,0c-0.1,0-0.2,0-0.3,0C47.1,46.8,43.1,45.4,38.4,45.4z"/>
	<g>
		<path class="st4" d="M29.1,33.8c0,0,3.3-17,19.8-16.7S68.5,27,68.5,27s0.5,2.6-4.4,4.1c0,0,1.8,2.6,2.4,4.6
			C67.1,37.7,29.1,33.8,29.1,33.8z"/>
		<path class="st1" d="M62,36.9c-7.8,0-22.9-1.4-32.9-2.4c-0.2,0-0.3-0.1-0.4-0.3c-0.1-0.1-0.1-0.3-0.1-0.5
			c0-0.2,3.6-17.6,20.4-17.2c16.8,0.3,20,9.9,20.2,10.3c0,0.2,0.5,2.9-4,4.7c0.6,0.9,1.6,2.7,2.1,4.1c0.1,0.3,0,0.5-0.2,0.7
			C66.6,36.7,64.8,36.9,62,36.9z M29.9,33.3c12.9,1.3,32.8,3,35.9,2.2c-0.7-1.8-2.2-4-2.2-4.1c-0.1-0.2-0.1-0.4-0.1-0.6
			c0.1-0.2,0.2-0.3,0.4-0.4c4.2-1.3,4-3.3,4-3.4c-0.1-0.3-3.2-9.1-19-9.3C34.9,17.5,30.7,30.2,29.9,33.3z"/>
	</g>
	<g>
		<path class="st0" d="M33.1,30.1c-4.3,0.9-5.5,1.5-7.3,5.5s-1.2,8.4,2.9,7.8c4.1-0.6,7-3.7,19.7-3.1s16.7,2.2,19.4,3
			c2.7,0.8,3.9-2.4,2-7.7S52.8,26,33.1,30.1z"/>
		<path class="st1" d="M27.9,44c-1.5,0-2.4-0.7-2.9-1.3c-1.2-1.6-1.1-4.5,0.2-7.4c1.9-4.2,3.3-4.9,7.7-5.8c19.3-4,35.2-0.1,37.3,5.9
			c1.3,3.6,1.3,6.5,0,7.9c-0.7,0.7-1.7,0.9-2.7,0.6l-0.7-0.2c-2.6-0.8-7-2.2-18.5-2.8c-8.9-0.4-12.9,1-15.9,2.1
			c-1.3,0.5-2.4,0.9-3.7,1C28.4,44,28.2,44,27.9,44z M33.1,30.1l0.1,0.6c-4.1,0.8-5.1,1.4-6.8,5.1c-1.1,2.4-1.2,4.9-0.3,6.1
			c0.5,0.7,1.4,1,2.5,0.8c1.1-0.2,2.2-0.5,3.4-1c3.1-1.1,7.3-2.6,16.4-2.1c11.7,0.6,16.1,2,18.8,2.8l0.7,0.2
			c0.6,0.2,1.1,0.1,1.5-0.3c0.7-0.7,1.1-2.9-0.2-6.6c-1.7-4.8-16.2-9.1-35.9-5.1L33.1,30.1z"/>
	</g>
	<g>
		<circle class="st0" cx="68.8" cy="28.1" r="6.4"/>
		<path class="st1" d="M68.8,35.1c-0.1,0-0.2,0-0.4,0c-3.9-0.2-6.9-3.5-6.7-7.4c0.2-3.9,3.5-6.9,7.4-6.7c3.9,0.2,6.9,3.5,6.7,7.4
			c-0.1,1.9-0.9,3.6-2.3,4.9C72.2,34.5,70.6,35.1,68.8,35.1z M68.8,22.3c-3.1,0-5.6,2.4-5.8,5.5c-0.1,1.5,0.4,3,1.5,4.2
			c1,1.1,2.5,1.8,4,1.9c1.5,0.1,3-0.4,4.2-1.5c1.1-1,1.8-2.5,1.9-4c0,0,0,0,0,0c0.1-1.5-0.4-3-1.5-4.2c-1-1.1-2.5-1.8-4-1.9
			C69,22.3,68.9,22.3,68.8,22.3z"/>
	</g>
	<path class="st2" d="M47.7,43.3c-6.4,0-7.5,2.2-7.2,4.1c0.3,1.9,1.6,3.5,7.2,3.5s6.1-1.6,6.1-3.8C53.8,45,50.5,43.3,47.7,43.3z"/>
	<path class="st1" d="M47.3,63.5c-9.8,0-11.6-8-11.6-8.1c-0.1-0.3,0.1-0.7,0.5-0.7c0.3-0.1,0.7,0.1,0.7,0.5
		c0.1,0.3,1.6,7.1,10.4,7.1c8.7,0,9.8-6.8,9.9-7.1c0.1-0.3,0.4-0.6,0.7-0.5c0.3,0,0.6,0.4,0.5,0.7C58.4,55.4,57.1,63.5,47.3,63.5z"
		/>
	<path class="st1" d="M34.7,55.7c-1.2,0-2.3-0.7-2.8-1.8c-0.1-0.3,0-0.7,0.3-0.8c0.3-0.1,0.7,0,0.8,0.3c0.4,0.9,1.5,1.3,2.5,0.9
		c0.9-0.4,1.3-1.5,0.9-2.5c-0.1-0.3,0-0.7,0.3-0.8c0.3-0.1,0.7,0,0.8,0.3c0.7,1.5,0.1,3.4-1.5,4.1C35.6,55.6,35.2,55.7,34.7,55.7z"
		/>
	<path class="st1" d="M58.7,56.1c-0.3,0-0.7-0.1-1-0.2c-1.5-0.5-2.3-2.2-1.8-3.8c0.1-0.3,0.5-0.5,0.8-0.4c0.3,0.1,0.5,0.5,0.4,0.8
		c-0.3,0.9,0.1,1.8,1,2.2c0.4,0.2,0.9,0.1,1.3-0.1c0.4-0.2,0.7-0.5,0.9-1c0.1-0.3,0.5-0.5,0.8-0.4c0.3,0.1,0.5,0.5,0.4,0.8
		c-0.3,0.7-0.8,1.3-1.5,1.7C59.6,56,59.2,56.1,58.7,56.1z"/>
	<path class="st1" d="M52.6,50.7c-0.2,0-0.4-0.1-0.5-0.3c-0.2-0.3-0.1-0.7,0.2-0.9c0.8-0.5,0.9-1.3,0.9-2.4c0-1.8-3-3.2-5.5-3.2
		c-3.9,0-5.5,0.9-6.1,1.6c-0.4,0.5-0.6,1.1-0.5,1.8c0.1,0.9,0.5,1.4,1.1,1.9c0.3,0.2,0.3,0.6,0.1,0.9c-0.2,0.3-0.6,0.3-0.9,0.1
		c-0.9-0.7-1.4-1.6-1.6-2.7c-0.2-1.1,0.1-2.1,0.8-2.8c1.2-1.3,3.5-2,7.1-2c3.2,0,6.8,1.8,6.8,4.4c0,1.3-0.2,2.6-1.5,3.4
		C52.9,50.6,52.7,50.7,52.6,50.7z"/>
	<path class="st1" d="M62.8,30.9c-0.2,0-0.4-0.1-0.5-0.3c0,0-2.5-3.9-6.2-6.3c-0.3-0.2-0.4-0.6-0.2-0.9c0.2-0.3,0.6-0.4,0.9-0.2
		c4,2.6,6.5,6.5,6.6,6.7c0.2,0.3,0.1,0.7-0.2,0.9C63,30.9,62.9,30.9,62.8,30.9z"/>
	<path class="st5" d="M51.2,48.5c0,1.1-1.7,1-3.8,1s-3.8,0.2-3.8-1c0-1.1,1.7-2.1,3.8-2.1S51.2,47.4,51.2,48.5z"/>
	<circle class="st6" cx="69.2" cy="27" r="3.4"/>
	<ellipse transform="matrix(0.956 0.2935 -0.2935 0.956 12.1004 -7.3176)" class="st6" cx="30.4" cy="36.7" rx="1.3" ry="2.9"/>
	<ellipse transform="matrix(0.956 0.2935 -0.2935 0.956 11.97 -9.0907)" class="st3" cx="36.3" cy="35.3" rx="1.3" ry="2.9"/>
	<ellipse transform="matrix(0.956 0.2935 -0.2935 0.956 13.9544 -17.3156)" class="st3" cx="64.7" cy="37.8" rx="1" ry="2.2"/>
	<ellipse transform="matrix(0.956 0.2935 -0.2935 0.956 12.0141 -11.1254)" class="st6" cx="43.1" cy="34.5" rx="1.3" ry="2.9"/>
	<ellipse transform="matrix(0.956 0.2935 -0.2935 0.956 12.9178 -15.4074)" class="st6" cx="57.8" cy="35.3" rx="1.3" ry="2.9"/>
	<ellipse transform="matrix(0.956 0.2935 -0.2935 0.956 12.333 -13.2506)" class="st3" cx="50.3" cy="34.5" rx="1.3" ry="2.9"/>
</g>
</svg>
